<?xml version="1.0" encoding="UTF-8"?>
<svg width="278px" height="307px" viewBox="0 0 278 307" version="1.1" xmlns="http://www.w3.org/2000/svg" xmlns:xlink="http://www.w3.org/1999/xlink">
    <title>aoian</title>
    <g id="页面-1" stroke="none" stroke-width="1" fill="none" fill-rule="evenodd">
        <g id="aoian" transform="translate(0.5151, 0.8494)" fill-rule="nonzero">
            <g id="path-1-link" fill="#0091FF">
                <path d="M17.6164865,61.9514001 C7.27297207,68.4980852 0.715591499,79.6257613 0,91.8460439 L0,207.153956 C0.715591499,219.374238 7.27297207,230.501914 17.6164865,237.048599 L121.073307,294.916089 C132.186468,300.361304 145.19312,300.361304 156.306281,294.916089 L259.869867,237.048599 C270.213382,230.501914 276.770762,219.374238 277.486354,207.153956 L277.486354,91.8460439 C276.770762,79.6257613 270.213382,68.4980852 259.869867,61.9514001 L156.413047,4.08391104 C145.299887,-1.36130368 132.293234,-1.36130368 121.180074,4.08391104 L17.6164865,61.9514001 Z" id="路径"></path>
            </g>
            <g id="Clipped" transform="translate(10.4849, 8.1506)">
                <g id="编组" transform="translate(0.0003, -3.6181)">
                    <path d="M42.985752,202.321731 C37.3728593,192.367831 37.7094416,180.129325 43.8609388,170.498969 L101.234292,80.4033556 C107.212588,70.5453826 118.032489,64.666415 129.556307,65.0146554 C141.071737,65.2906116 151.546041,71.747056 156.96667,81.9106216 C162.315033,92.0238906 161.646488,104.191417 155.240607,113.684762 L97.9037201,203.780375 C91.9943022,212.988884 81.7873202,218.537154 70.8458633,218.489627 C59.3244423,218.513586 48.6807371,212.337265 42.985752,202.321731 Z" id="路径" fill-opacity="0.5" fill="#1A67FD"></path>
                    <path d="M51.985752,202.321731 C46.3728593,192.367831 46.7094416,180.129325 52.8609388,170.498969 L110.234292,80.4033556 C116.212588,70.5453826 127.032489,64.666415 138.556307,65.0146554 C150.071737,65.2906116 160.546041,71.747056 165.96667,81.9106216 C171.315033,92.0238906 170.646488,104.191417 164.240607,113.684762 L106.90372,203.780375 C100.994302,212.988884 90.7873202,218.537154 79.8458633,218.489627 C68.3244423,218.513586 57.6807371,212.337265 51.985752,202.321731 Z" id="路径备份" fill="#FFFFFF"></path>
                    <ellipse id="椭圆形" fill-opacity="0.5" fill="#1A67FD" cx="170.537554" cy="189.917627" rx="29.5375538" ry="28.9176274"></ellipse>
                    <ellipse id="椭圆形" fill="#FFFFFF" cx="177.537554" cy="189.917627" rx="29.5375538" ry="28.9176274"></ellipse>
                </g>
            </g>
        </g>
    </g>
</svg>