<?xml version="1.0" encoding="UTF-8"?>
<svg width="256px" height="289px" viewBox="0 0 256 289" version="1.1" xmlns="http://www.w3.org/2000/svg" xmlns:xlink="http://www.w3.org/1999/xlink">
    <title>buddy</title>
    <defs>
        <path d="M116.612,3.025 C92.293,17.023 35.707,49.765 11.389,63.762 C4.389,67.796 0,75.388 0,83.455 L0,204.931 C0,212.997 4.389,220.59 11.389,224.623 C35.589,238.621 92.293,271.362 116.612,285.361 C123.729,289.393 132.389,289.393 139.388,285.361 C163.589,271.362 220.293,238.621 244.611,224.623 C251.61,220.59 256,212.997 256,204.931 L256,83.455 C256,75.27 251.61,67.796 244.611,63.762 C220.411,49.765 163.707,17.023 139.388,3.025 C135.829,1.008 131.885,4.99600361e-15 127.955,4.99600361e-15 C124.026,4.99600361e-15 120.111,1.008 116.612,3.025 Z" id="path-1"></path>
    </defs>
    <g id="页面-1" stroke="none" stroke-width="1" fill="none" fill-rule="evenodd">
        <g id="buddy" transform="translate(0, -0)">
            <g id="path-1-link" fill="#00C9FF" fill-rule="nonzero">
                <path d="M116.612,3.025 C92.293,17.023 35.707,49.765 11.389,63.762 C4.389,67.796 0,75.388 0,83.455 L0,204.931 C0,212.997 4.389,220.59 11.389,224.623 C35.589,238.621 92.293,271.362 116.612,285.361 C123.729,289.393 132.389,289.393 139.388,285.361 C163.589,271.362 220.293,238.621 244.611,224.623 C251.61,220.59 256,212.997 256,204.931 L256,83.455 C256,75.27 251.61,67.796 244.611,63.762 C220.411,49.765 163.707,17.023 139.388,3.025 C135.829,1.008 131.885,4.99600361e-15 127.955,4.99600361e-15 C124.026,4.99600361e-15 120.111,1.008 116.612,3.025 Z" id="path-1"></path>
            </g>
            <g id="Clipped">
                <mask id="mask-2" fill="white">
                    <use xlink:href="#path-1"></use>
                </mask>
                <g id="path-1"></g>
                <g id="编组" mask="url(#mask-2)" fill-rule="nonzero">
                    <g transform="translate(0.0003, -3.6181)">
                        <polygon id="路径" fill="#1A67FD" opacity="0.954578218" points="66.55 147.811 128 295.859 0 221.716"></polygon>
                        <polygon id="路径" fill="#0DA7FE" opacity="0.954578218" points="66.55 147.811 0 73.431 0 221.716"></polygon>
                        <polygon id="路径" fill="#00C9FF" opacity="0.954578218" points="66.55 147.811 128 0 256 221.716"></polygon>
                        <path d="M66.55,147.811 C70.9839355,115.691328 76.7659562,91.0561608 83.8960623,73.9055 C91.0261684,56.7548392 105.727481,32.1196725 128,0 L0,73.431 L66.55,147.811 Z" id="路径" fill="#05BBFF" opacity="0.954578218"></path>
                        <path d="M127.9997,295.8594 L255.9997,221.7164 C207.416615,216.159484 172.184315,209.113005 150.302801,200.576962 C128.421286,192.040919 100.503586,174.452399 66.5497,147.8114 L127.9997,295.8594 Z" id="路径" fill="#1A86FD" opacity="0.954578218"></path>
                        <path d="M256,221.7163 L256,73.431 L127.9997,0.0003 C142.636254,56.3359205 157.069354,96.8276872 171.299,121.4756 C185.528646,146.123513 213.762313,179.537079 256,221.7163 Z" id="路径" fill="#05BBFF" opacity="0.954578218"></path>
                        <path d="M42.985752,202.321731 C37.3728593,192.367831 37.7094416,180.129325 43.8609388,170.498969 L101.234292,80.4033556 C107.212588,70.5453826 118.032489,64.666415 129.556307,65.0146554 C141.071737,65.2906116 151.546041,71.747056 156.96667,81.9106216 C162.315033,92.0238906 161.646488,104.191417 155.240607,113.684762 L97.9037201,203.780375 C91.9943022,212.988884 81.7873202,218.537154 70.8458633,218.48932 C59.3244423,218.513586 48.6807371,212.337265 42.985752,202.321731 Z" id="路径" fill-opacity="0.5" fill="#1A67FD"></path>
                        <path d="M51.985752,202.321731 C46.3728593,192.367831 46.7094416,180.129325 52.8609388,170.498969 L110.234292,80.4033556 C116.212588,70.5453826 127.032489,64.666415 138.556307,65.0146554 C150.071737,65.2906116 160.546041,71.747056 165.96667,81.9106216 C171.315033,92.0238906 170.646488,104.191417 164.240607,113.684762 L106.90372,203.780375 C100.994302,212.988884 90.7873202,218.537154 79.8458633,218.48932 C68.3244423,218.513586 57.6807371,212.337265 51.985752,202.321731 Z" id="路径备份" fill="#FFFFFF"></path>
                        <ellipse id="椭圆形" fill-opacity="0.5" fill="#1A67FD" cx="170.537554" cy="189.917627" rx="29.5375538" ry="28.9176274"></ellipse>
                        <ellipse id="椭圆形" fill="#FFFFFF" cx="177.537554" cy="189.917627" rx="29.5375538" ry="28.9176274"></ellipse>
                    </g>
                </g>
            </g>
        </g>
    </g>
</svg>